<svg xmlns="http://www.w3.org/2000/svg" width="24" height="24" viewBox="0 0 24 24" role="img" aria-label="GitHub">
  <path fill="#222222" d="M12 .5a12 12 0 0 0-3.79 23.4c.6.11.82-.26.82-.58l-.02-2.06c-3.34.73-4.04-1.61-4.04-1.61-.55-1.4-1.35-1.77-1.35-1.77-1.1-.75.09-.74.09-.74 1.22.09 1.87 1.25 1.87 1.25 1.08 1.86 2.83 1.32 3.52 1.01.11-.79.42-1.32.77-1.62-2.66-.3-5.46-1.33-5.46-5.93 0-1.31.47-2.38 1.24-3.22-.12-.3-.54-1.51.12-3.15 0 0 1.01-.32 3.3 1.23a11.5 11.5 0 0 1 6 0c2.28-1.55 3.29-1.23 3.29-1.23.66 1.64.24 2.85.12 3.15.77.84 1.24 1.91 1.24 3.22 0 4.61-2.81 5.62-5.49 5.92.43.37.82 1.1.82 2.22l-.01 3.29c0 .32.21.7.83.58A12 12 0 0 0 12 .5z"/>
</svg>
